# xmcd
#
# Track frame offsets: 
#        150
#        18288
#        32501
#        48889
#        66214
#        82338
#        99000
#        114550
#        129498
#        154391
#        170012
#
# Disc length: 2475 seconds
#
# Revision: 2
# Processed by: cddbd v1.5.2PL0 Copyright (c) Steve Scherf et al.
# Submitted via: ExactAudioCopy v0.99pb4
#
DISCID=8809a90b
DTITLE=John Rich - Son Of A Preacher Man
DYEAR=2009
DGENRE=Country
TTITLE0=Shuttin' Detroit Down
TTITLE1=Trucker Man
TTITLE2=The Good Lord And The Man
TTITLE3=Another You
TTITLE4=Preacher Man
TTITLE5=I Don't Wanna Lose Your Love
TTITLE6=Everybody Wants To Be Me
TTITLE7=Turn A Country Boy On
TTITLE8=Why Does Somebody Always Have To Die
TTITLE9=I Thought You'd Never Ask
TTITLE10=Drive Myself To Drink
EXTD=
EXTT0=
EXTT1=
EXTT2=
EXTT3=
EXTT4=
EXTT5=
EXTT6=
EXTT7=
EXTT8=
EXTT9=
EXTT10=
PLAYORDER=
